<svg width="60" height="60" viewBox="0 0 60 60" fill="none" xmlns="http://www.w3.org/2000/svg">
<path d="M17 31L9 39.2627V46H17V31Z" fill="#E32E0F"/>
<path d="M44 31L52 39.2627V46H44V31Z" fill="#E32E0F"/>
<path fill-rule="evenodd" clip-rule="evenodd" d="M27.3957 9.52438C22.0838 13.844 19 20.3264 19 27.1729V46H42V27.1729C42 20.3264 38.9162 13.844 33.6043 9.52437L30.5 7L27.3957 9.52438ZM30.5 30C33.5376 30 36 27.5376 36 24.5C36 21.4624 33.5376 19 30.5 19C27.4624 19 25 21.4624 25 24.5C25 27.5376 27.4624 30 30.5 30Z" fill="#E32E0F"/>
<circle cx="30.5" cy="24.5" r="3.5" fill="#E32E0F"/>
<path d="M22 48H39L35.851 53H30.6466H24.6154L22 48Z" fill="#F7C0B7"/>
</svg>
