<svg width="60" height="60" viewBox="0 0 60 60" fill="none" xmlns="http://www.w3.org/2000/svg">
<path fill-rule="evenodd" clip-rule="evenodd" d="M49.4958 49C52.3305 45.0595 54 40.2247 54 35C54 21.7452 43.2548 11 30 11C16.7452 11 6 21.7452 6 35C6 40.2247 7.66952 45.0595 10.5042 49H49.4958Z" fill="#E32E0F"/>
<path d="M47 34C47 25.1634 39.3888 18 30 18C20.6112 18 13 25.1634 13 34" stroke="white" stroke-width="3" stroke-linecap="round"/>
<path d="M36.7232 28.6955L33.4937 39.6731C33.6466 40.061 33.7217 40.5259 33.7194 40.9903C33.7178 41.3 33.6384 41.6867 33.5595 41.996C33.0871 43.542 31.6878 44.6962 29.9071 44.6873C28.204 44.6787 26.7389 43.51 26.3596 41.9597C26.2837 41.6496 26.2083 41.2622 26.2098 40.9525C26.2176 39.4041 27.2311 38.0157 28.5499 37.4804L34.7152 27.7564C35.0276 27.216 35.7251 27.0647 36.2655 27.3771C36.651 27.6887 36.8804 28.2319 36.7232 28.6955Z" fill="#F7C0B7"/>
</svg>
