<svg width="60" height="60" viewBox="0 0 60 60" fill="none" xmlns="http://www.w3.org/2000/svg">
  <path
    d="M18.0006 6C16.3438 6 15.0006 7.34315 15.0006 9V16H41.0006C42.6575 16 44.0006 17.3431 44.0006 19V44H51.0006C52.6575 44 54.0006 42.6569 54.0006 41V9C54.0006 7.34315 52.6575 6 51.0006 6H18.0006Z"
    fill="#F7C0B7" />
  <path fill-rule="evenodd" clip-rule="evenodd"
    d="M9.00046 18C7.3436 18 6.00046 19.3431 6.00046 21V51C6.00046 52.6569 7.3436 54 9.00046 54H39.0005C40.6573 54 42.0005 52.6569 42.0005 51V21C42.0005 19.3431 40.6573 18 39.0005 18H9.00046ZM20.5477 28.0117C19.8826 27.5768 19.0005 28.054 19.0005 28.8486V42.1514C19.0005 42.946 19.8826 43.4232 20.5477 42.9883L30.7204 36.337C31.3241 35.9423 31.3241 35.0577 30.7204 34.663L20.5477 28.0117Z"
    fill="#FF0025" />
</svg>